<?xml version="1.0" encoding="UTF-8" standalone="no"?>
<!-- Created with Inkscape (http://www.inkscape.org/) -->

<svg
   xmlns:dc="http://purl.org/dc/elements/1.1/"
   xmlns:cc="http://creativecommons.org/ns#"
   xmlns:rdf="http://www.w3.org/1999/02/22-rdf-syntax-ns#"
   xmlns:svg="http://www.w3.org/2000/svg"
   xmlns="http://www.w3.org/2000/svg"
   xmlns:xlink="http://www.w3.org/1999/xlink"
   xmlns:sodipodi="http://sodipodi.sourceforge.net/DTD/sodipodi-0.dtd"
   xmlns:inkscape="http://www.inkscape.org/namespaces/inkscape"
   width="25.6"
   height="25.6"
   id="svg2"
   sodipodi:version="0.32"
   inkscape:version="0.92.1 r15371"
   version="1.0"
   sodipodi:docname="igdebi.svg"
   inkscape:output_extension="org.inkscape.output.svg.inkscape">
  <defs
     id="defs4">
    <radialGradient
       inkscape:collect="always"
       xlink:href="#linearGradient3681"
       id="radialGradient2601"
       gradientUnits="userSpaceOnUse"
       gradientTransform="matrix(0.63341067,0,0,1.6390966,43.883618,-110.86526)"
       cx="5"
       cy="41.5"
       fx="5"
       fy="41.5"
       r="5" />
    <linearGradient
       id="linearGradient3703">
      <stop
         style="stop-color:black;stop-opacity:0;"
         offset="0"
         id="stop3705" />
      <stop
         id="stop3711"
         offset="0.5"
         style="stop-color:black;stop-opacity:1;" />
      <stop
         style="stop-color:black;stop-opacity:0;"
         offset="1"
         id="stop3707" />
    </linearGradient>
    <linearGradient
       inkscape:collect="always"
       xlink:href="#linearGradient3703"
       id="linearGradient2599"
       gradientUnits="userSpaceOnUse"
       gradientTransform="matrix(1.874167,0,0,1.4900879,-18.553615,-17.505811)"
       x1="17.554192"
       y1="46.000275"
       x2="17.554192"
       y2="34.999718" />
    <linearGradient
       inkscape:collect="always"
       id="linearGradient3681">
      <stop
         style="stop-color:black;stop-opacity:1;"
         offset="0"
         id="stop3683" />
      <stop
         style="stop-color:black;stop-opacity:0;"
         offset="1"
         id="stop3685" />
    </linearGradient>
    <radialGradient
       inkscape:collect="always"
       xlink:href="#linearGradient3681"
       id="radialGradient2597"
       gradientUnits="userSpaceOnUse"
       gradientTransform="matrix(0.63341067,0,0,1.6390966,-7.1034384,-110.86526)"
       cx="5"
       cy="41.5"
       fx="5"
       fy="41.5"
       r="5" />
    <linearGradient
       id="linearGradient3295">
      <stop
         style="stop-color:#c4a880;stop-opacity:1;"
         offset="0"
         id="stop3297" />
      <stop
         id="stop3299"
         offset="0.23942046"
         style="stop-color:#a37e4f;stop-opacity:1;" />
      <stop
         id="stop3301"
         offset="0.27582464"
         style="stop-color:#c0a37b;stop-opacity:1;" />
      <stop
         style="stop-color:#90734c;stop-opacity:1;"
         offset="1"
         id="stop3303" />
    </linearGradient>
    <linearGradient
       inkscape:collect="always"
       xlink:href="#linearGradient3295"
       id="linearGradient2591"
       gradientUnits="userSpaceOnUse"
       x1="15.464298"
       y1="7.9756851"
       x2="15.464298"
       y2="45.04248"
       gradientTransform="matrix(0.54641461,0,0,0.53308811,-0.31395499,-0.78753621)" />
    <linearGradient
       id="linearGradient3199">
      <stop
         id="stop3201"
         offset="0"
         style="stop-color:#dac197;stop-opacity:1" />
      <stop
         style="stop-color:#c1a581;stop-opacity:1"
         offset="0.23942046"
         id="stop3203" />
      <stop
         style="stop-color:#dbc298;stop-opacity:1"
         offset="0.27582464"
         id="stop3205" />
      <stop
         id="stop3207"
         offset="1"
         style="stop-color:#a68b60;stop-opacity:1" />
    </linearGradient>
    <linearGradient
       inkscape:collect="always"
       xlink:href="#linearGradient3199"
       id="linearGradient2589"
       gradientUnits="userSpaceOnUse"
       gradientTransform="matrix(0.70062667,0,0,0.83015787,-3.6307966,-8.9388565)"
       x1="24.822832"
       y1="15.377745"
       x2="24.996943"
       y2="37.27668" />
    <linearGradient
       id="linearGradient4559">
      <stop
         style="stop-color:#ffffff;stop-opacity:0;"
         offset="0"
         id="stop4561" />
      <stop
         style="stop-color:#ffffff;stop-opacity:0;"
         offset="1"
         id="stop4563" />
    </linearGradient>
    <linearGradient
       inkscape:collect="always"
       xlink:href="#linearGradient4559"
       id="linearGradient2586"
       gradientUnits="userSpaceOnUse"
       gradientTransform="matrix(0.70062667,0,0,0.62621173,-3.6297229,-3.615155)"
       x1="23.451576"
       y1="30.554907"
       x2="43.00663"
       y2="45.934479" />
    <linearGradient
       id="linearGradient2605">
      <stop
         id="stop2607"
         offset="0"
         style="stop-color:#ffffff;stop-opacity:1;" />
      <stop
         style="stop-color:#ffffff;stop-opacity:1;"
         offset="0.28755552"
         id="stop2609" />
      <stop
         style="stop-color:#ffffff;stop-opacity:0.69019608;"
         offset="0.32903713"
         id="stop2611" />
      <stop
         id="stop2613"
         offset="1"
         style="stop-color:#ffffff;stop-opacity:0;" />
    </linearGradient>
    <linearGradient
       inkscape:collect="always"
       xlink:href="#linearGradient2605"
       id="linearGradient2583"
       gradientUnits="userSpaceOnUse"
       x1="26"
       y1="22"
       x2="26"
       y2="8"
       gradientTransform="matrix(0.53333333,0,0,0.53333323,3.1253333e-7,-1.0666662)" />
    <linearGradient
       id="linearGradient3275">
      <stop
         style="stop-color:#ffffff;stop-opacity:0;"
         offset="0"
         id="stop3277" />
      <stop
         id="stop3283"
         offset="0.245"
         style="stop-color:#ffffff;stop-opacity:1;" />
      <stop
         style="stop-color:#ffffff;stop-opacity:1;"
         offset="0.77350003"
         id="stop3285" />
      <stop
         style="stop-color:#ffffff;stop-opacity:0;"
         offset="1"
         id="stop3279" />
    </linearGradient>
    <linearGradient
       inkscape:collect="always"
       xlink:href="#linearGradient3275"
       id="linearGradient2580"
       gradientUnits="userSpaceOnUse"
       spreadMethod="reflect"
       x1="44.994774"
       y1="17.5"
       x2="3.0052247"
       y2="17.5"
       gradientTransform="matrix(0.54641461,0,0,0.53308811,-0.31288128,-0.26237536)" />
    <linearGradient
       inkscape:collect="always"
       id="linearGradient4222">
      <stop
         style="stop-color:#ffffff;stop-opacity:1;"
         offset="0"
         id="stop4224" />
      <stop
         style="stop-color:#ffffff;stop-opacity:0;"
         offset="1"
         id="stop4226" />
    </linearGradient>
    <linearGradient
       inkscape:collect="always"
       xlink:href="#linearGradient4222"
       id="linearGradient3134"
       gradientUnits="userSpaceOnUse"
       gradientTransform="matrix(0,0.39519648,-0.38586624,0,-4.4055883,3.6100306)"
       x1="13.471772"
       y1="25.410501"
       x2="57.726395"
       y2="25.410501" />
    <linearGradient
       id="linearGradient2264">
      <stop
         style="stop-color:#d7e866;stop-opacity:1;"
         offset="0"
         id="stop2266" />
      <stop
         style="stop-color:#8cab2a;stop-opacity:1;"
         offset="1"
         id="stop2268" />
    </linearGradient>
    <linearGradient
       inkscape:collect="always"
       xlink:href="#linearGradient2264"
       id="linearGradient3132"
       gradientUnits="userSpaceOnUse"
       gradientTransform="matrix(0,-0.34074347,-0.33424213,0,-6.5624245,21.122483)"
       x1="28.314739"
       y1="20.709501"
       x2="0.81572169"
       y2="20.709501" />
    <radialGradient
       id="radialGradient4120"
       gradientUnits="userSpaceOnUse"
       cy="63.965"
       cx="15.116"
       gradientTransform="scale(1.644,0.60828)"
       r="12.289"
       inkscape:collect="always">
      <stop
         id="stop4116"
         style="stop-color:#000000"
         offset="0" />
      <stop
         id="stop4118"
         style="stop-color:#000000;stop-opacity:0"
         offset="1" />
    </radialGradient>
    <radialGradient
       id="radialGradient3968"
       gradientUnits="userSpaceOnUse"
       cy="15.716"
       cx="18.247999"
       gradientTransform="scale(0.99999,1)"
       r="29.993"
       inkscape:collect="always">
      <stop
         id="stop3964"
         style="stop-color:#d3e9ff"
         offset="0" />
      <stop
         id="stop4134"
         style="stop-color:#d3e9ff"
         offset=".15517" />
      <stop
         id="stop4346"
         style="stop-color:#4074ae"
         offset=".75" />
      <stop
         id="stop3966"
         style="stop-color:#36486c"
         offset="1" />
    </radialGradient>
    <radialGradient
       id="radialGradient4132"
       gradientUnits="userSpaceOnUse"
       cy="12.142"
       cx="15.601"
       gradientTransform="scale(0.99999,1)"
       r="43.527"
       inkscape:collect="always">
      <stop
         id="stop4128"
         style="stop-color:#ffffff"
         offset="0" />
      <stop
         id="stop4130"
         style="stop-color:#ffffff;stop-opacity:.16495"
         offset="1" />
    </radialGradient>
    <linearGradient
       id="linearGradient6007"
       y2="21.042"
       xlink:href="#linearGradient4222"
       gradientUnits="userSpaceOnUse"
       x2="-22.252001"
       y1="30.056999"
       x1="-25.176001"
       inkscape:collect="always" />
    <linearGradient
       id="linearGradient6011"
       y2="22.662001"
       xlink:href="#linearGradient4222"
       gradientUnits="userSpaceOnUse"
       x2="-22.114"
       y1="30.056999"
       x1="-25.176001"
       inkscape:collect="always" />
    <radialGradient
       id="radialGradient5983"
       xlink:href="#linearGradient4222"
       gradientUnits="userSpaceOnUse"
       cy="12.493"
       cx="12.071"
       r="6.7175002"
       inkscape:collect="always" />
    <linearGradient
       id="linearGradient6015"
       y2="22.662001"
       xlink:href="#linearGradient4222"
       gradientUnits="userSpaceOnUse"
       x2="-22.114"
       y1="28.337999"
       x1="-22.823"
       inkscape:collect="always" />
    <linearGradient
       id="linearGradient6019"
       y2="21.336"
       xlink:href="#linearGradient4222"
       gradientUnits="userSpaceOnUse"
       x2="-21.962"
       y1="15.649"
       x1="-21.659"
       inkscape:collect="always" />
    <radialGradient
       id="radialGradient1134"
       xlink:href="#linearGradient4222"
       gradientUnits="userSpaceOnUse"
       cy="12.493"
       cx="12.071"
       r="6.7175002"
       inkscape:collect="always" />
    <radialGradient
       id="radialGradient1142"
       xlink:href="#linearGradient4222"
       gradientUnits="userSpaceOnUse"
       cy="12.493"
       cx="12.071"
       r="6.7175002"
       inkscape:collect="always" />
    <radialGradient
       id="radialGradient1150"
       xlink:href="#linearGradient4222"
       gradientUnits="userSpaceOnUse"
       cy="12.493"
       cx="12.071"
       r="6.7175002"
       inkscape:collect="always" />
    <radialGradient
       r="6.7175002"
       cy="12.493"
       cx="12.071"
       gradientUnits="userSpaceOnUse"
       id="radialGradient1215"
       xlink:href="#linearGradient4222"
       inkscape:collect="always" />
    <radialGradient
       r="6.7175002"
       cy="12.493"
       cx="12.071"
       gradientUnits="userSpaceOnUse"
       id="radialGradient1217"
       xlink:href="#linearGradient4222"
       inkscape:collect="always" />
    <radialGradient
       r="6.7175002"
       cy="12.493"
       cx="12.071"
       gradientUnits="userSpaceOnUse"
       id="radialGradient1219"
       xlink:href="#linearGradient4222"
       inkscape:collect="always" />
  </defs>
  <sodipodi:namedview
     id="base"
     pagecolor="#ffffff"
     bordercolor="#666666"
     borderopacity="1.0"
     gridtolerance="10000"
     guidetolerance="10"
     objecttolerance="10"
     inkscape:pageopacity="0.0"
     inkscape:pageshadow="2"
     inkscape:zoom="10.375"
     inkscape:cx="19.514925"
     inkscape:cy="27.421687"
     inkscape:document-units="px"
     inkscape:current-layer="layer1"
     showgrid="false"
     inkscape:window-width="1280"
     inkscape:window-height="955"
     inkscape:window-x="0"
     inkscape:window-y="32"
     inkscape:window-maximized="1" />
  <metadata
     id="metadata7">
    <rdf:RDF>
      <cc:Work
         rdf:about="">
        <dc:format>image/svg+xml</dc:format>
        <dc:type
           rdf:resource="http://purl.org/dc/dcmitype/StillImage" />
      </cc:Work>
    </rdf:RDF>
  </metadata>
  <g
     inkscape:label="Layer 1"
     inkscape:groupmode="layer"
     id="layer1">
    <g
       id="g3305"
       style="display:inline;opacity:0.4"
       transform="matrix(0.507121,0,0,0.4555355,-0.39496885,1.2836084)">
      <rect
         style="opacity:1;fill:url(#radialGradient2597);fill-opacity:1;stroke:none;stroke-width:1.06666672;stroke-linecap:round;stroke-linejoin:miter;stroke-miterlimit:4;stroke-dasharray:none;stroke-dashoffset:1.20000052;stroke-opacity:1"
         id="rect2484"
         width="3.1575415"
         height="16.390966"
         x="-3.9363868"
         y="-51.038231"
         transform="scale(-1)" />
      <rect
         style="opacity:1;fill:url(#linearGradient2599);fill-opacity:1;stroke:none;stroke-width:1.06666672;stroke-linecap:round;stroke-linejoin:miter;stroke-miterlimit:4;stroke-dasharray:none;stroke-dashoffset:1.20000052;stroke-opacity:1"
         id="rect2486"
         width="43.105835"
         height="16.390966"
         x="3.9363868"
         y="34.647266" />
      <rect
         style="display:inline;opacity:1;fill:url(#radialGradient2601);fill-opacity:1;stroke:none;stroke-width:1.06666672;stroke-linecap:round;stroke-linejoin:miter;stroke-miterlimit:4;stroke-dasharray:none;stroke-dashoffset:1.20000052;stroke-opacity:1"
         id="rect3444"
         width="3.1575415"
         height="16.390966"
         x="47.050667"
         y="-51.038231"
         transform="scale(1,-1)" />
    </g>
    <path
       inkscape:r_cy="true"
       inkscape:r_cx="true"
       sodipodi:nodetypes="ccccccccccc"
       id="path2488"
       d="M 4.6096369,3.7437129 H 20.727622 c 0.94092,0 1.364356,-0.1527567 1.634629,0.5330881 l 1.640191,4.2647048 V 22.227965 c 0,0.828047 0.05625,0.70153 -0.884679,0.70153 H 2.4822284 c -0.9409219,0 -0.88468,0.126517 -0.88468,-0.70153 V 8.5415058 L 3.2377401,4.276801 C 3.5004735,3.6048102 3.6687151,3.7437129 4.6096369,3.7437129 Z"
       style="display:block;overflow:visible;visibility:visible;fill:url(#linearGradient2589);fill-opacity:1;fill-rule:nonzero;stroke:url(#linearGradient2591);stroke-width:1.06048083;stroke-linecap:round;stroke-linejoin:miter;stroke-miterlimit:4;stroke-dasharray:none;stroke-dashoffset:0;stroke-opacity:1;marker:none;marker-start:none;marker-mid:none;marker-end:none"
       inkscape:connector-curvature="0" />
    <path
       style="display:block;overflow:visible;visibility:visible;opacity:0.50549454;fill:none;fill-opacity:1;fill-rule:nonzero;stroke:url(#linearGradient2586);stroke-width:0.79158962;stroke-linecap:butt;stroke-linejoin:miter;stroke-miterlimit:4;stroke-dasharray:none;stroke-dashoffset:0;stroke-opacity:1;marker:none;marker-start:none;marker-mid:none;marker-end:none"
       d="M 5.1229574,4.2831391 H 20.232891 c 0.882073,0 1.427988,0.2966827 1.797442,1.1120367 L 23.3029,8.8174528 V 21.155542 c 0,0.778668 -0.447382,1.170707 -1.329457,1.170707 H 3.5411276 c -0.8820736,0 -1.2418782,-0.431177 -1.2418782,-1.209846 V 8.8174528 L 3.5307646,5.3218021 C 3.7770677,4.6898836 4.2408819,4.2831391 5.1229574,4.2831391 Z"
       id="path2490"
       sodipodi:nodetypes="ccccccccccc"
       inkscape:r_cx="true"
       inkscape:r_cy="true"
       inkscape:connector-curvature="0" />
    <path
       style="display:inline;overflow:visible;visibility:visible;opacity:0.4;fill:url(#linearGradient2583);fill-opacity:1;fill-rule:nonzero;stroke:none;stroke-width:1.06666672;stroke-linecap:square;stroke-linejoin:round;stroke-miterlimit:4;stroke-dasharray:none;stroke-dashoffset:0;stroke-opacity:1;marker:none;marker-start:none;marker-mid:none;marker-end:none;enable-background:accumulate"
       d="m 11.733333,3.2 c 0.711112,0 1.422223,0 2.133334,0 0,2.4888891 0,4.9777773 0,7.466667 -0.20999,0 -0.419979,0 -0.629966,0 -0.215002,0 -0.430001,0 -0.645002,0 -0.173081,0 -0.346163,0 -0.519244,0 -0.113042,0 -0.226081,0 -0.339122,0 0,-2.4888897 0,-4.9777779 0,-7.466667 z"
       id="rect3326"
       sodipodi:nodetypes="cccssscc"
       inkscape:connector-curvature="0" />
    <path
       style="display:inline;opacity:0.4;fill:none;fill-rule:evenodd;stroke:url(#linearGradient2580);stroke-width:1.0666666px;stroke-linecap:square;stroke-linejoin:miter;stroke-opacity:1"
       d="M 1.6024247,9.0666667 H 23.999714"
       id="path3273"
       inkscape:connector-curvature="0" />
    <g
       id="g3128"
       transform="translate(32.681124,4.5691113)">
      <path
         id="path3288"
         d="m -7.9600085,13.030889 -6.6043315,7.467576 -6.571233,-7.467576 h 2.854449 V 6.6299782 h 7.466666 v 6.4009108 z"
         style="display:inline;overflow:visible;visibility:visible;fill:url(#linearGradient3132);fill-opacity:1;fill-rule:nonzero;stroke:#699536;stroke-width:1.06484747;stroke-linecap:round;stroke-linejoin:round;stroke-miterlimit:4;stroke-dasharray:none;stroke-dashoffset:0;stroke-opacity:1;marker:none;marker-start:none;marker-mid:none;marker-end:none"
         sodipodi:nodetypes="cccccccc"
         inkscape:connector-curvature="0" />
      <path
         id="path3290"
         d="m -10.359628,14.097555 -4.188163,4.848123 -4.306067,-4.848123 h 1.6394 V 7.6975548 h 5.333334 v 6.4000002 z"
         style="display:inline;overflow:visible;visibility:visible;opacity:0.35400008;fill:none;fill-opacity:1;fill-rule:nonzero;stroke:url(#linearGradient3134);stroke-width:1.06484747;stroke-linecap:butt;stroke-linejoin:miter;stroke-miterlimit:4;stroke-dasharray:none;stroke-dashoffset:0;stroke-opacity:1;marker:none;marker-start:none;marker-mid:none;marker-end:none"
         sodipodi:nodetypes="cccccccc"
         inkscape:connector-curvature="0" />
    </g>
    <g
       transform="matrix(0.29641484,0,0,0.29641484,4.2933792,3.6917896)"
       id="g1081">
      <ellipse
         ry="7.4751287"
         rx="20.203051"
         cy="38.908627"
         cx="24.849752"
         transform="matrix(1,0,0,1.2432,0,-10.272)"
         style="fill:url(#radialGradient4120)"
         id="path4112" />
      <path
         inkscape:connector-curvature="0"
         d="m 43.96,23.485 c 0,10.71 -8.682,19.392 -19.39,19.392 -10.71,0 -19.391,-8.682 -19.391,-19.392 -3e-4,-10.709 8.681,-19.39 19.391,-19.39 10.708,2e-4 19.39,8.681 19.39,19.39 z"
         style="fill:url(#radialGradient3968);stroke:#39396c"
         id="path3214" />
      <g
         transform="matrix(0.98237,0,0,0.98237,0.12108,0.23291)"
         style="fill:#204a87;fill-opacity:0.71344999"
         id="g4136">
        <g
           style="fill:#204a87"
           id="g4138">
          <g
             style="fill:#204a87"
             id="g4142">
            <path
               inkscape:connector-curvature="0"
               d="m 44.071,20.714 v 0 l -0.545,0.618 c -0.334,-0.394 -0.709,-0.725 -1.089,-1.071 l -0.836,0.123 -0.764,-0.863 v 1.068 l 0.654,0.495 0.436,0.494 0.582,-0.658 c 0.146,0.274 0.291,0.548 0.436,0.823 v 0.822 l -0.655,0.74 -1.199,0.823 -0.908,0.907 -0.582,-0.661 0.291,-0.74 -0.582,-0.658 -0.981,-2.098 -0.836,-0.945 -0.219,0.246 0.328,1.194 0.618,0.699 c 0.352,1.017 0.701,1.99 1.164,2.963 0.718,0 1.394,-0.077 2.107,-0.166 v 0.576 l -0.872,2.139 -0.8,0.904 -0.654,1.401 v 2.303 l 0.219,0.906 -0.364,0.41 -0.8,0.494 -0.836,0.699 0.691,0.782 -0.945,0.824 0.182,0.533 -1.418,1.606 h -0.945 l -0.8,0.494 H 33.64 v -0.659 l -0.217,-1.318 c -0.281,-0.826 -0.574,-1.647 -0.872,-2.467 0,-0.605 0.036,-1.205 0.072,-1.81 l 0.364,-0.823 -0.509,-0.988 0.037,-1.357 -0.692,-0.782 0.346,-1.13 -0.563,-0.639 h -0.982 l -0.327,-0.37 -0.981,0.618 -0.4,-0.454 -0.909,0.782 c -0.617,-0.7 -1.235,-1.399 -1.854,-2.098 l -0.726,-1.729 0.654,-0.986 -0.363,-0.411 0.799,-1.894 c 0.656,-0.816 1.341,-1.599 2.035,-2.385 l 1.236,-0.329 1.381,-0.165 0.945,0.248 1.345,1.356 0.473,-0.534 0.653,-0.082 1.236,0.411 h 0.946 l 0.654,-0.576 0.291,-0.411 -0.655,-0.412 -1.091,-0.082 C 35.663,17.045 35.382,16.603 35.022,16.23 l -0.364,0.164 -0.145,1.07 -0.655,-0.74 -0.144,-0.824 -0.727,-0.574 h -0.292 l 0.728,0.822 -0.291,0.74 -0.581,0.164 0.363,-0.74 -0.655,-0.328 -0.581,-0.658 -1.091,0.246 -0.145,0.328 -0.654,0.412 -0.363,0.906 -0.909,0.452 -0.4,-0.452 H 27.68 v -1.482 l 0.946,-0.494 h 0.726 l -0.146,-0.575 -0.58,-0.576 0.98,-0.206 0.545,-0.617 0.436,-0.741 h 0.801 l -0.219,-0.575 0.509,-0.329 v 0.658 l 1.09,0.246 1.09,-0.904 0.073,-0.412 0.945,-0.658 c -0.342,0.043 -0.684,0.074 -1.018,0.165 V 9.9766 l 0.363,-0.8228 h -0.363 l -0.798,0.7402 -0.219,0.412 0.219,0.576 -0.365,0.987 -0.581,-0.329 -0.508,-0.576 -0.8,0.576 -0.291,-1.316 1.381,-0.9052 V 8.8247 l 0.872,-0.5757 1.381,-0.3296 0.946,0.3296 1.744,0.3291 -0.436,0.4932 h -0.945 l 0.945,0.9877 0.727,-0.8227 0.221,-0.3618 c 0,0 2.787,2.4975 4.379,5.2305 1.593,2.733 2.341,5.955 2.341,6.609 z"
               style="fill:#204a87"
               id="path4144" />
          </g>
        </g>
        <g
           style="fill:#204a87"
           id="g4146">
          <g
             style="fill:#204a87"
             id="g4150">
            <path
               inkscape:connector-curvature="0"
               d="M 26.07,9.2363 25.997,9.7295 26.507,10.059 27.378,9.4829 26.942,8.9892 26.36,9.3188 26.07,9.2363"
               style="fill:#204a87"
               id="path4152" />
          </g>
        </g>
        <g
           style="fill:#204a87"
           id="g4154">
          <g
             style="fill:#204a87"
             id="g4158">
            <path
               inkscape:connector-curvature="0"
               d="M 26.87,5.8633 24.98,5.1226 22.8,5.3692 20.109,6.1094 19.601,6.6035 21.272,7.7549 V 8.4131 L 20.618,9.0713 21.491,10.8 22.071,10.47 22.8,9.3188 C 23.923,8.9716 24.93,8.5781 25.997,8.0844 L 26.87,5.8632"
               style="fill:#204a87"
               id="path4160" />
          </g>
        </g>
        <g
           style="fill:#204a87"
           id="g4162">
          <g
             style="fill:#204a87"
             id="g4166">
            <path
               inkscape:connector-curvature="0"
               d="m 28.833,12.775 -0.291,-0.741 -0.51,0.165 0.147,0.904 0.654,-0.328"
               style="fill:#204a87"
               id="path4168" />
          </g>
        </g>
        <g
           style="fill:#204a87"
           id="g4170">
          <g
             style="fill:#204a87"
             id="g4174">
            <path
               inkscape:connector-curvature="0"
               d="m 29.123,12.609 -0.145,0.988 0.799,-0.165 0.581,-0.575 -0.508,-0.494 c -0.171,-0.455 -0.368,-0.88 -0.582,-1.317 h -0.435 v 0.494 l 0.29,0.329 v 0.74"
               style="fill:#204a87"
               id="path4176" />
          </g>
        </g>
        <g
           style="fill:#204a87"
           id="g4178">
          <g
             style="fill:#204a87"
             id="g4182">
            <path
               inkscape:connector-curvature="0"
               d="m 18.365,28.242 -0.582,-1.152 -1.09,-0.247 -0.582,-1.562 -1.453,0.164 -1.236,-0.904 -1.309,1.151 v 0.182 C 11.717,25.759 11.23,25.744 10.878,25.527 L 10.587,24.705 V 23.799 L 9.7148,23.881 C 9.7876,23.305 9.8598,22.73 9.9331,22.154 H 9.4238 L 8.9155,22.812 8.4062,23.058 7.6791,22.648 7.6063,21.743 7.7518,20.755 8.8426,19.933 h 0.8721 l 0.145,-0.494 1.0903,0.246 0.8,0.988 0.145,-1.646 1.382,-1.152 0.508,-1.234 1.018,-0.411 0.581,-0.822 1.309,-0.248 0.654,-0.987 h -1.963 l 1.236,-0.576 h 0.872 l 1.236,-0.412 0.146,-0.492 -0.437,-0.412 -0.509,-0.165 0.146,-0.494 -0.363,-0.74 -0.873,0.328 0.146,-0.657 -1.018,-0.5765 -0.799,1.3975 0.072,0.494 -0.799,0.331 -0.51,1.069 -0.218,-0.987 -1.381,-0.577 -0.218,-0.74 1.817,-1.0701 0.8,-0.7402 0.073,-0.9048 -0.436,-0.2471 -0.582,-0.0825 -0.363,0.9053 c 0,0 -0.608,0.1191 -0.764,0.1577 -1.996,1.8397 -6.0294,5.8097 -6.9664,13.306 0.0371,0.174 0.6792,1.182 0.6792,1.182 l 1.5264,0.904 1.5264,0.412 0.6544,0.824 1.018,0.74 0.581,-0.082 0.436,0.196 v 0.133 l -0.581,1.563 -0.437,0.658 0.146,0.33 -0.363,1.233 1.308,2.386 1.308,1.153 0.582,0.822 -0.073,1.728 0.437,0.987 -0.437,1.892 c 0,0 -0.034,-0.011 0.022,0.178 0.056,0.19 2.329,1.451 2.473,1.344 0.144,-0.109 0.267,-0.205 0.267,-0.205 l -0.145,-0.41 0.581,-0.577 0.219,-0.576 0.945,-0.33 0.727,-1.81 -0.218,-0.493 0.508,-0.74 1.09,-0.248 0.582,-1.316 -0.145,-1.645 0.872,-1.234 0.145,-1.235 c -1.193,-0.591 -2.376,-1.201 -3.561,-1.81"
               style="fill:#204a87"
               id="path4184" />
          </g>
        </g>
        <g
           style="fill:#204a87"
           id="g4186">
          <g
             style="fill:#204a87"
             id="g4190">
            <path
               inkscape:connector-curvature="0"
               d="m 16.766,9.5649 0.726,0.4941 h 0.582 V 9.4829 L 17.348,9.1538 16.766,9.5649"
               style="fill:#204a87"
               id="path4192" />
          </g>
        </g>
        <g
           style="fill:#204a87"
           id="g4194">
          <g
             style="fill:#204a87"
             id="g4198">
            <path
               inkscape:connector-curvature="0"
               d="M 14.876,8.9072 14.512,9.812 h 0.727 L 15.603,8.9892 C 15.917,8.7675 16.229,8.5444 16.548,8.331 l 0.727,0.2471 c 0.484,0.3291 0.969,0.6582 1.454,0.9868 L 19.456,8.9072 18.656,8.5781 18.292,7.8374 16.911,7.6728 16.838,7.2612 16.184,7.4262 15.894,8.002 15.53,7.2613 l -0.145,0.3291 0.073,0.8228 -0.582,0.494"
               style="fill:#204a87"
               id="path4200" />
          </g>
        </g>
        <g
           style="fill:#204a87"
           id="g4202">
          <g
             style="opacity:0.75;fill:#204a87"
             id="g4204" />
          <g
             style="fill:#204a87"
             id="g4208" />
        </g>
        <g
           style="fill:#204a87"
           id="g4212">
          <g
             style="opacity:0.75;fill:#204a87"
             id="g4214" />
          <g
             style="fill:#204a87"
             id="g4218" />
        </g>
        <g
           style="fill:#204a87"
           id="g4222">
          <g
             style="fill:#204a87"
             id="g4226">
            <path
               inkscape:connector-curvature="0"
               d="M 17.492,6.8496 17.856,6.521 18.583,6.3564 C 19.081,6.1142 19.581,5.9511 20.11,5.7802 l -0.29,-0.4937 -0.939,0.1348 -0.443,0.4419 -0.731,0.106 -0.65,0.3052 -0.316,0.1528 -0.193,0.2583 0.944,0.1641"
               style="fill:#204a87"
               id="path4228" />
          </g>
        </g>
        <g
           style="fill:#204a87"
           id="g4230">
          <g
             style="fill:#204a87"
             id="g4234">
            <path
               inkscape:connector-curvature="0"
               d="m 18.728,14.666 0.437,-0.658 -0.655,-0.493 0.218,1.151"
               style="fill:#204a87"
               id="path4236" />
          </g>
        </g>
      </g>
      <path
         inkscape:connector-curvature="0"
         d="m 42.975,23.486 c 0,10.165 -8.241,18.406 -18.406,18.406 C 14.404,41.892 6.163,33.651 6.163,23.486 6.1634,13.32 14.404,5.08 24.569,5.08 34.734,5.0799 42.975,13.32 42.975,23.486 Z"
         style="opacity:0.39560002;fill:none;stroke:url(#radialGradient4132)"
         id="path4122" />
      <ellipse
         ry="9.4575529"
         rx="15.733126"
         cy="21.041553"
         cx="-18.561554"
         inkscape:r_cx="true"
         inkscape:r_cy="true"
         transform="matrix(1.131,0.6131,-0.47656,0.87914,54.091,16.044)"
         style="color:#000000;fill:none;stroke:url(#linearGradient6007);stroke-width:0.88164002;stroke-linecap:round;stroke-linejoin:round"
         id="path5991" />
      <ellipse
         ry="9.4575529"
         rx="15.733126"
         cy="21.041553"
         cx="-18.561554"
         inkscape:r_cx="true"
         transform="matrix(0.93933,-0.87909,0.68331,0.73013,32.314,-4.4516)"
         inkscape:r_cy="true"
         style="color:#000000;fill:none;stroke:url(#linearGradient6011);stroke-width:0.88164002;stroke-linecap:round;stroke-linejoin:round"
         id="path6009" />
      <g
         transform="matrix(-1.0458,0.76725,0.76725,1.0458,35.617,-22.144)"
         inkscape:r_cx="true"
         inkscape:r_cy="true"
         id="g4933">
        <circle
           r="6.7175145"
           cy="12.493138"
           cx="12.071323"
           inkscape:r_cx="true"
           transform="translate(14.95,22.93)"
           inkscape:r_cy="true"
           style="color:#000000;fill:url(#radialGradient1215);fill-rule:evenodd"
           id="path4935" />
        <circle
           r="6.7175145"
           cy="12.493138"
           cx="12.071323"
           inkscape:r_cx="true"
           inkscape:r_cy="true"
           transform="matrix(0.30827,0,0,0.30827,23.3,31.572)"
           style="color:#000000;fill:#ffffff;fill-rule:evenodd"
           id="path4937" />
      </g>
      <ellipse
         ry="9.4575529"
         rx="15.733126"
         cy="21.041553"
         cx="-18.561554"
         inkscape:r_cx="true"
         inkscape:r_cy="true"
         transform="matrix(-1.2803,-0.12616,0.098062,-0.99518,-2.4051,40.524)"
         style="color:#000000;fill:none;stroke:url(#linearGradient6015);stroke-width:0.88164002;stroke-linecap:round;stroke-linejoin:round"
         id="path6013" />
      <ellipse
         ry="9.4575529"
         rx="15.733126"
         cy="21.041553"
         cx="-18.561554"
         inkscape:r_cx="true"
         inkscape:r_cy="true"
         transform="matrix(0.91787,-0.85898,0.6677,0.71343,27.633,-6.9091)"
         style="color:#000000;fill:none;stroke:url(#linearGradient6019);stroke-width:0.90226001;stroke-linecap:round;stroke-linejoin:round"
         id="path6017" />
      <g
         transform="matrix(-0.80628,0.59154,0.59154,0.80628,12.386,-18.029)"
         inkscape:r_cy="true"
         inkscape:r_cx="true"
         id="g5075">
        <circle
           r="6.7175145"
           cy="12.493138"
           cx="12.071323"
           inkscape:r_cx="true"
           transform="translate(14.95,22.93)"
           inkscape:r_cy="true"
           style="color:#000000;fill:url(#radialGradient1217);fill-rule:evenodd"
           id="path5077" />
        <circle
           r="6.7175145"
           cy="12.493138"
           cx="12.071323"
           inkscape:r_cx="true"
           inkscape:r_cy="true"
           transform="matrix(0.30827,0,0,0.30827,23.3,31.572)"
           style="color:#000000;fill:#ffffff;fill-rule:evenodd"
           id="path5079" />
      </g>
      <g
         transform="matrix(-0.80628,0.59154,0.59154,0.80628,13.499,-31.5)"
         inkscape:r_cx="true"
         inkscape:r_cy="true"
         id="g4945">
        <circle
           r="6.7175145"
           cy="12.493138"
           cx="12.071323"
           inkscape:r_cx="true"
           inkscape:r_cy="true"
           transform="translate(14.95,22.93)"
           style="color:#000000;fill:url(#radialGradient1219);fill-rule:evenodd"
           id="path4947" />
        <circle
           r="6.7175145"
           cy="12.493138"
           cx="12.071323"
           inkscape:r_cx="true"
           transform="matrix(0.30827,0,0,0.30827,23.3,31.572)"
           inkscape:r_cy="true"
           style="color:#000000;fill:#ffffff;fill-rule:evenodd"
           id="path4949" />
      </g>
      <g
         transform="matrix(-0.87023,0.63857,0.63846,0.87038,25.205,-35.313)"
         inkscape:r_cy="true"
         inkscape:r_cx="true"
         id="g4939">
        <circle
           r="6.7175145"
           cy="12.493138"
           cx="12.071323"
           inkscape:r_cx="true"
           inkscape:r_cy="true"
           transform="translate(14.95,22.93)"
           style="color:#000000;fill:url(#radialGradient5983);fill-rule:evenodd"
           id="path4941" />
        <circle
           r="6.7175145"
           cy="12.493138"
           cx="12.071323"
           inkscape:r_cx="true"
           transform="matrix(0.30827,0,0,0.30827,23.3,31.572)"
           inkscape:r_cy="true"
           style="color:#000000;fill:#ffffff;fill-rule:evenodd"
           id="path4943" />
      </g>
    </g>
  </g>
</svg>
